<svg width="87" height="87" viewBox="0 0 87 87" fill="none" xmlns="http://www.w3.org/2000/svg">
<g clip-path="url(#clip0)">
<path d="M72.302 6.97974C65.6545 6.97974 60.4021 12.3142 60.4021 18.9617C60.4021 25.6092 65.7365 30.8616 72.302 30.8616C78.8674 30.8616 84.2839 25.5271 84.2839 18.8796C84.2839 12.2321 78.9495 6.97974 72.302 6.97974ZM72.302 28.2354C67.1317 28.2354 62.9462 24.0499 62.9462 18.8796C62.9462 13.7093 67.2138 9.60592 72.302 9.60592C77.4723 9.60592 81.6577 13.7914 81.6577 18.9617C81.6577 24.132 77.4723 28.2354 72.302 28.2354Z" fill="black"/>
<circle cx="72.5" cy="19.3334" r="9.66667" fill="#F0C419"/>
<path d="M76.0771 20.7671C75.9951 20.5209 75.9951 20.3568 75.8309 20.1106C75.7489 19.9464 75.6668 19.7002 75.5027 19.5361C75.3385 19.372 75.2565 19.2078 75.0923 19.0437C74.9282 18.8796 74.764 18.7154 74.5178 18.6334C74.3537 18.4692 74.1075 18.3872 73.9434 18.3051C73.6972 18.223 73.533 18.0589 73.2868 17.9768C73.0406 17.8947 72.7944 17.8127 72.6303 17.7306C72.5482 17.7306 72.3841 17.6485 72.302 17.5665C72.2199 17.4844 72.0558 17.4844 71.9737 17.4023C71.8917 17.3203 71.7275 17.3203 71.6455 17.2382C71.5634 17.1561 71.4813 17.0741 71.3993 16.992C71.3172 16.9099 71.2351 16.8279 71.2351 16.6637C71.1531 16.5817 71.1531 16.4175 71.1531 16.3355C71.1531 16.1713 71.1531 16.0892 71.1531 15.9251C71.1531 15.843 71.2351 15.6789 71.2351 15.5968C71.3172 15.5148 71.3172 15.3506 71.3993 15.2686C71.4813 15.1865 71.5634 15.1044 71.6455 15.0224C71.7275 14.9403 71.8917 14.8582 72.0558 14.8582C72.2199 14.7762 72.302 14.7762 72.4661 14.7762C72.5482 14.7762 72.6303 14.7762 72.7123 14.7762C72.7944 14.7762 72.8765 14.7762 72.9586 14.7762C73.1227 14.7762 73.2048 14.7762 73.3689 14.8582C73.533 14.8582 73.6972 14.9403 73.7792 14.9403C73.8613 14.9403 74.0254 15.0224 74.1075 15.0224C74.2716 15.0224 74.3537 15.1044 74.4358 15.1044L74.8461 15.2686L74.9282 14.7762L75.0923 13.4631V13.1348L74.764 13.0527C74.682 13.0527 74.5178 12.9707 74.4358 12.9707C74.3537 12.9707 74.2716 12.8886 74.1075 12.8886C74.0254 12.8886 73.8613 12.8065 73.6972 12.8065C73.533 12.8065 73.451 12.7245 73.2868 12.7245H73.2048V11.5755V11.1652H72.7944H71.6455H71.2351V11.5755V12.8065H71.1531C70.9069 12.8886 70.6607 12.9707 70.4145 13.1348C70.1683 13.2169 70.0041 13.381 69.84 13.5451C69.6758 13.7093 69.5117 13.8734 69.3476 14.1196C69.1834 14.2837 69.1014 14.53 69.0193 14.7762C68.9372 15.0224 68.8552 15.2686 68.7731 15.5148C68.691 15.761 68.691 16.0892 68.691 16.3355C68.691 16.5817 68.691 16.7458 68.7731 16.992C68.8552 17.2382 68.8552 17.4023 69.0193 17.6485C69.1014 17.8127 69.2655 18.0589 69.3476 18.223C69.5117 18.3872 69.5938 18.5513 69.7579 18.7154C69.922 18.8796 70.0862 19.0437 70.3324 19.1258C70.4965 19.2899 70.7427 19.372 70.9069 19.454C71.1531 19.5361 71.3993 19.7002 71.5634 19.7823C71.8096 19.8644 72.0558 19.9464 72.2199 20.0285C72.302 20.0285 72.4661 20.1106 72.5482 20.1927C72.6303 20.2747 72.7944 20.2747 72.8765 20.3568C72.9586 20.4389 73.0406 20.5209 73.1227 20.5209C73.2048 20.603 73.2868 20.6851 73.3689 20.7671C73.451 20.8492 73.451 20.9313 73.533 21.0954C73.533 21.1775 73.6151 21.3416 73.6151 21.5057C73.6151 21.6699 73.6151 21.7519 73.6151 21.9161C73.6151 21.9982 73.533 22.1623 73.451 22.2444C73.3689 22.3264 73.2868 22.4085 73.2048 22.4906C73.1227 22.5726 73.0406 22.6547 72.8765 22.7368C72.7944 22.8188 72.6303 22.8188 72.5482 22.9009C72.4661 22.9009 72.302 22.983 72.1379 22.983C72.0558 22.983 71.9737 22.983 71.8096 22.983C71.7275 22.983 71.5634 22.983 71.4813 22.983C71.3172 22.983 71.1531 22.983 71.071 22.983C70.9069 22.983 70.7427 22.9009 70.6607 22.9009C70.4965 22.9009 70.3324 22.8188 70.1682 22.7368C70.0041 22.6547 69.84 22.6547 69.6758 22.5726C69.5938 22.5726 69.5117 22.4906 69.4296 22.4906C69.3476 22.4906 69.2655 22.4085 69.1834 22.4085L68.691 22.1623L68.609 22.7368L68.4448 24.214V24.4602L68.691 24.5423C69.0193 24.4602 69.1834 24.5423 69.4296 24.6243C69.5938 24.7064 69.84 24.7885 70.0041 24.7885C70.1683 24.8705 70.4144 24.8705 70.6607 24.9526C70.9069 25.0347 71.071 25.0347 71.3172 25.0347H71.4813V26.2657V26.676H71.8917H73.0406H73.451V26.2657V24.9526H73.533C73.7792 24.8705 74.0254 24.7885 74.2716 24.6243C74.5178 24.5423 74.682 24.3781 74.9282 24.214C75.0923 24.0499 75.2565 23.8857 75.4206 23.6395C75.5847 23.4754 75.6668 23.2292 75.8309 22.983C75.913 22.7368 75.9951 22.4906 76.0771 22.2444C76.1592 21.9982 76.1592 21.7519 76.1592 21.4237C76.1592 21.1775 76.1592 21.0133 76.0771 20.7671Z" fill="black"/>
<path d="M66.5572 32.4208C66.1469 31.8463 65.2442 31.7642 64.6697 32.1746L51.3746 42.7613L34.2224 35.6214C33.8121 35.4573 33.3197 35.5393 32.9914 35.7856L14.6081 48.9165C14.0336 49.3268 13.8695 50.1475 14.2799 50.722C14.5261 51.1323 14.9364 51.2964 15.3467 51.2964C15.5929 51.2964 15.8391 51.2144 16.0854 51.0502L33.8941 38.3297L51.1284 45.4696C51.5388 45.6337 52.1133 45.5517 52.4415 45.3055L66.311 34.3083C66.8855 33.898 66.9676 32.9952 66.5572 32.4208Z" fill="black"/>
<path d="M85.7612 77.3941H79.6881V39.3966C79.6881 38.658 79.1137 38.0835 78.3751 38.0835H66.311C65.5724 38.0835 64.9979 38.658 64.9979 39.3966V77.3941H60.5663V52.5275C60.5663 51.7889 59.9918 51.2144 59.2532 51.2144H47.1071C46.3685 51.2144 45.794 51.7889 45.794 52.5275V77.3941H41.3623V50.5579C41.3623 49.8192 40.7879 49.2448 40.0492 49.2448H27.9852C27.2466 49.2448 26.6721 49.8192 26.6721 50.5579V77.3941H22.2405V58.2723C22.2405 57.5337 21.666 56.9592 20.9274 56.9592H8.78129C8.04268 56.9592 7.4682 57.5337 7.4682 58.2723V77.3941H1.31309C0.574477 77.3941 0 77.9686 0 78.7072C0 79.4459 0.574477 80.0203 1.31309 80.0203H8.69922H20.7632H27.9852H40.0492H47.1071H59.1711H66.229H78.293H85.6791C86.4177 80.0203 86.9922 79.4459 86.9922 78.7072C87.0743 77.9686 86.4998 77.3941 85.7612 77.3941ZM19.5322 77.3941H10.0944V59.5854H19.5322V77.3941ZM38.7362 77.3941H29.2983V51.8709H38.7362V77.3941ZM57.858 77.3941H48.4202V53.8406H57.858V77.3941ZM77.062 77.3941H67.6241V40.7097H77.062V77.3941Z" fill="black"/>
</g>
<defs>
<clipPath id="clip0">
<rect width="87" height="87" fill="white"/>
</clipPath>
</defs>
</svg>
