<svg width="90" height="90" viewBox="0 0 90 90" fill="none" xmlns="http://www.w3.org/2000/svg">
<path d="M60.9677 5.8064C52.1638 5.8064 45 12.9702 45 21.7741H47.9032C47.9032 14.5699 53.7635 8.70962 60.9677 8.70962V5.8064Z" fill="black"/>
<circle cx="61.5" cy="22.5" r="20.5" fill="#F0C419"/>
<path d="M74.0323 21.7742C74.0323 28.9784 68.172 34.8387 60.9678 34.8387V37.7419C69.7717 37.7419 76.9355 30.5781 76.9355 21.7742H74.0323Z" fill="black"/>
<path d="M82.7419 21.7742C82.7419 9.76791 72.974 0 60.9677 0C52.6295 0 45.382 4.71491 41.7239 11.6129H8.70967C7.9066 11.6129 7.25806 12.2615 7.25806 13.0645V88.5484C7.25806 89.3515 7.9066 90 8.70967 90H72.5806C73.3837 90 74.0322 89.3515 74.0322 88.5484V39.1531C79.3085 35.1754 82.7419 28.877 82.7419 21.7742ZM43.5888 34.8387H15.9677V20.3226H39.2673C39.2354 20.8046 39.1935 21.2837 39.1935 21.7742C39.1935 26.6791 40.8429 31.1955 43.5888 34.8387ZM71.129 87.0968H10.1613V14.5161H40.4637C40.1284 15.4595 39.835 16.4221 39.6316 17.4194H14.5161C13.7131 17.4194 13.0645 18.0679 13.0645 18.871V36.2903C13.0645 37.0934 13.7131 37.7419 14.5161 37.7419H46.2135C50.0984 41.3334 55.2719 43.5484 60.9677 43.5484C64.6372 43.5484 68.0925 42.6284 71.129 41.018V87.0968ZM60.9677 40.6452C50.5626 40.6452 42.0968 32.1793 42.0968 21.7742C42.0968 11.3691 50.5626 2.90323 60.9677 2.90323C71.3728 2.90323 79.8387 11.3691 79.8387 21.7742C79.8387 32.1793 71.3728 40.6452 60.9677 40.6452Z" fill="black"/>
<path d="M62.4194 29.0323C64.8201 29.0323 66.7742 27.0781 66.7742 24.6774C66.7742 22.2767 64.8201 20.3226 62.4194 20.3226H59.5162C58.7152 20.3226 58.0645 19.6719 58.0645 18.871C58.0645 18.07 58.7152 17.4194 59.5162 17.4194H66.7742V14.5161H62.4194V11.6129H59.5162V14.5161C57.1155 14.5161 55.1613 16.4703 55.1613 18.871C55.1613 21.2717 57.1155 23.2258 59.5162 23.2258H62.4194C63.2203 23.2258 63.871 23.8765 63.871 24.6774C63.871 25.4784 63.2203 26.129 62.4194 26.129H55.1613V29.0323H59.5162V31.9355H62.4194V29.0323Z" fill="black"/>
<path d="M23.2258 43.5483H14.5161C13.7131 43.5483 13.0645 44.1969 13.0645 45V53.7096C13.0645 54.5127 13.7131 55.1612 14.5161 55.1612H23.2258C24.0289 55.1612 24.6774 54.5127 24.6774 53.7096V45C24.6774 44.1969 24.0289 43.5483 23.2258 43.5483ZM21.7742 52.258H15.9677V46.4516H21.7742V52.258Z" fill="black"/>
<path d="M37.7419 43.5483H29.0323C28.2292 43.5483 27.5807 44.1969 27.5807 45V53.7096C27.5807 54.5127 28.2292 55.1612 29.0323 55.1612H37.7419C38.545 55.1612 39.1936 54.5127 39.1936 53.7096V45C39.1936 44.1969 38.545 43.5483 37.7419 43.5483ZM36.2903 52.258H30.4839V46.4516H36.2903V52.258Z" fill="black"/>
<path d="M52.2581 43.5483H43.5484C42.7453 43.5483 42.0968 44.1969 42.0968 45V53.7096C42.0968 54.5127 42.7453 55.1612 43.5484 55.1612H52.2581C53.0612 55.1612 53.7097 54.5127 53.7097 53.7096V45C53.7097 44.1969 53.0612 43.5483 52.2581 43.5483ZM50.8065 52.258H45V46.4516H50.8065V52.258Z" fill="black"/>
<path d="M23.2258 58.0645H14.5161C13.7131 58.0645 13.0645 58.713 13.0645 59.5161V68.2257C13.0645 69.0288 13.7131 69.6774 14.5161 69.6774H23.2258C24.0289 69.6774 24.6774 69.0288 24.6774 68.2257V59.5161C24.6774 58.713 24.0289 58.0645 23.2258 58.0645ZM21.7742 66.7741H15.9677V60.9677H21.7742V66.7741Z" fill="black"/>
<path d="M37.7419 58.0645H29.0323C28.2292 58.0645 27.5807 58.713 27.5807 59.5161V68.2257C27.5807 69.0288 28.2292 69.6774 29.0323 69.6774H37.7419C38.545 69.6774 39.1936 69.0288 39.1936 68.2257V59.5161C39.1936 58.713 38.545 58.0645 37.7419 58.0645ZM36.2903 66.7741H30.4839V60.9677H36.2903V66.7741Z" fill="black"/>
<path d="M52.2581 58.0645H43.5484C42.7453 58.0645 42.0968 58.713 42.0968 59.5161V68.2257C42.0968 69.0288 42.7453 69.6774 43.5484 69.6774H52.2581C53.0612 69.6774 53.7097 69.0288 53.7097 68.2257V59.5161C53.7097 58.713 53.0612 58.0645 52.2581 58.0645ZM50.8065 66.7741H45V60.9677H50.8065V66.7741Z" fill="black"/>
<path d="M56.6129 59.5161V82.7419C56.6129 83.5449 57.2615 84.1935 58.0645 84.1935H66.7742C67.5773 84.1935 68.2258 83.5449 68.2258 82.7419V59.5161C68.2258 58.713 67.5773 58.0645 66.7742 58.0645H58.0645C57.2615 58.0645 56.6129 58.713 56.6129 59.5161ZM59.5161 60.9677H65.3226V81.2903H59.5161V60.9677Z" fill="black"/>
<path d="M23.2258 72.5807H14.5161C13.7131 72.5807 13.0645 73.2292 13.0645 74.0323V82.742C13.0645 83.545 13.7131 84.1936 14.5161 84.1936H23.2258C24.0289 84.1936 24.6774 83.545 24.6774 82.742V74.0323C24.6774 73.2292 24.0289 72.5807 23.2258 72.5807ZM21.7742 81.2904H15.9677V75.4839H21.7742V81.2904Z" fill="black"/>
<path d="M37.7419 72.5807H29.0323C28.2292 72.5807 27.5807 73.2292 27.5807 74.0323V82.742C27.5807 83.545 28.2292 84.1936 29.0323 84.1936H37.7419C38.545 84.1936 39.1936 83.545 39.1936 82.742V74.0323C39.1936 73.2292 38.545 72.5807 37.7419 72.5807ZM36.2903 81.2904H30.4839V75.4839H36.2903V81.2904Z" fill="black"/>
<path d="M52.2581 72.5807H43.5484C42.7453 72.5807 42.0968 73.2292 42.0968 74.0323V82.742C42.0968 83.545 42.7453 84.1936 43.5484 84.1936H52.2581C53.0612 84.1936 53.7097 83.545 53.7097 82.742V74.0323C53.7097 73.2292 53.0612 72.5807 52.2581 72.5807ZM50.8065 81.2904H45V75.4839H50.8065V81.2904Z" fill="black"/>
</svg>
