<svg width="362" height="270" viewBox="0 0 362 270" fill="none" xmlns="http://www.w3.org/2000/svg">
<line y1="215.123" x2="338.826" y2="215.123" stroke="#F0BE60" stroke-width="13.4189"/>
<path d="M98.6 203.2C100.067 203.867 101.333 204.533 102.4 205.2C103.2 203.6 104.133 202.267 105.2 201.2C102.4 202 100.267 202.533 98.8 202.8C98.8 202.933 98.7333 203.067 98.6 203.2ZM158.8 120.6C160.133 120.6 161.133 121 161.8 121.8C162.6 122.6 163 123.733 163 125.2C163 126.667 162 128.533 160 130.8C158 133.067 156.267 134.2 154.8 134.2C153.333 134.2 152.267 133.8 151.6 133C150.933 132.067 150.6 131.067 150.6 130C150.6 128.8 151.667 126.933 153.8 124.4C155.933 121.867 157.6 120.6 158.8 120.6ZM104.2 220C104.2 218.133 104 216.4 103.6 214.8C82.6667 243.2 72.2 258.733 72.2 261.4C72.2 262.6 72.7333 263.2 73.8 263.2C76.4667 263.2 80.2667 260.867 85.2 256.2C90 251.667 94.4 245.867 98.4 238.8C102.267 231.867 104.2 225.6 104.2 220ZM99.8 208.8C96.4667 205.467 92 203.8 86.4 203.8C84.6667 203.533 83.8 202.8 83.8 201.6C83.9333 200.533 84.7333 200 86.2 200C86.4667 200 88.6 200.2 92.6 200.6C96.0667 200.6 101.2 199.467 108 197.2L141.4 150.6C141.667 150.2 141.8 149.8 141.8 149.4C141.8 148.867 141.6 148.6 141.2 148.6C140.8 148.6 140.4 148.8 140 149.2L129.6 157.8L128.8 154.8L139 146.2C143.8 141.4 147.133 139 149 139C149.667 139 150.333 139.333 151 140C151.667 140.533 152 141.333 152 142.4C152 146.267 141.533 162.6 120.6 191.4C125.933 188.467 129.733 185.467 132 182.4C132.533 181.733 133.2 181.4 134 181.4C134.8 181.4 135.2 181.867 135.2 182.8C135.2 187.2 129 191.933 116.6 197L107.4 209.6C109.8 212.533 111 216.733 111 222.2C111 227.667 108.267 234.333 102.8 242.2C97.3333 250.2 91.2 256.8 84.4 262C77.6 267.2 72.2667 269.8 68.4 269.8C64.5333 269.8 62.6 268.067 62.6 264.6C62.6 262.067 75 243.467 99.8 208.8ZM189.909 163.8C197.376 163.8 206.309 159.6 216.709 151.2L220.109 152.2C207.043 163.133 195.776 168.6 186.309 168.6C185.243 168.6 184.443 168.533 183.909 168.4C180.309 172.8 176.376 176.4 172.109 179.2C167.843 181.867 164.109 183.2 160.909 183.2C155.843 183.2 153.309 180.4 153.309 174.8C153.309 169.067 158.043 161.467 167.509 152C165.909 148.133 165.109 144.067 165.109 139.8C165.109 135.533 166.643 132.067 169.709 129.4C172.776 126.733 176.309 125.4 180.309 125.4C184.443 125.4 187.909 126.733 190.709 129.4C193.509 132.067 194.909 135.867 194.909 140.8C194.909 148.4 192.443 156 187.509 163.6C188.043 163.733 188.843 163.8 189.909 163.8ZM183.509 161.8C187.643 154.867 189.709 149 189.709 144.2C189.709 139.267 188.509 135.667 186.109 133.4C183.709 131 181.376 129.8 179.109 129.8C174.443 129.8 172.109 132.2 172.109 137C172.109 141.8 173.176 146.6 175.309 151.4C177.443 156.067 180.176 159.533 183.509 161.8ZM161.509 173.6C161.509 176.267 163.243 177.6 166.709 177.6C170.176 177.6 174.576 174.067 179.909 167C176.309 165.133 173.109 161.867 170.309 157.2C164.443 163.6 161.509 169.067 161.509 173.6ZM211.598 203.8L214.198 200.4C216.332 197.867 217.665 196.2 218.198 195.4C214.332 197.133 211.265 198.267 208.998 198.8C206.732 199.467 205.598 199.933 205.598 200.2L211.598 203.8ZM212.598 215.8C212.598 214.467 212.398 213.067 211.998 211.6C192.398 236.133 182.598 250.8 182.598 255.6C182.598 256 182.798 256.2 183.198 256.2C185.465 256.2 188.932 254 193.598 249.6C198.265 245.2 202.598 239.733 206.598 233.2C210.598 226.667 212.598 220.867 212.598 215.8ZM196.598 200.4C196.998 199.333 197.332 198.733 197.598 198.6C197.732 198.467 198.198 198.333 198.998 198.2C199.798 198.2 202.332 197.6 206.598 196.4C210.865 195.333 215.932 193.533 221.798 191C238.865 169.267 247.865 157.467 248.798 155.6C249.865 153.6 250.398 152.4 250.398 152C250.398 151.6 250.132 151.4 249.598 151.4C249.065 151.4 248.465 151.867 247.798 152.8C247.532 152.933 245.732 154.533 242.398 157.6C239.198 160.533 235.998 163.267 232.798 165.8C229.732 168.333 226.132 170.8 221.998 173.2C217.865 175.467 214.332 176.6 211.398 176.6C208.465 176.6 206.998 175.533 206.998 173.4C207.132 168.467 210.465 161.667 216.998 153C223.665 144.333 228.132 140 230.398 140C232.665 140 233.798 140.6 233.798 141.8C233.798 142.467 230.732 146.6 224.598 154.2C218.598 161.8 215.598 166.533 215.598 168.4C215.598 170.267 216.198 171.2 217.398 171.2C219.798 171.2 226.665 166.333 237.998 156.6C249.465 146.867 256.532 142 259.198 142C259.998 142 260.732 142.4 261.398 143.2C262.198 144 262.598 144.867 262.598 145.8C262.598 148.733 252.998 161.867 233.798 185.2C251.798 175.2 268.532 163.867 283.998 151.2L288.398 147.6C289.465 146.933 290.332 146.6 290.998 146.6C291.665 146.6 291.998 146.933 291.998 147.6L291.798 148.4C292.465 148.4 288.932 151.333 281.198 157.2C273.465 163.067 266.332 168.267 259.798 172.8C253.265 177.333 243.198 183.067 229.598 190L215.398 207.4C217.265 210.067 218.198 213.2 218.198 216.8C218.198 222.933 215.598 229.733 210.398 237.2C205.198 244.8 199.398 251.067 192.998 256C186.465 261.067 181.132 263.6 176.998 263.6C175.798 263.6 174.732 263.133 173.798 262.2C172.732 261.4 172.198 260.2 172.198 258.6C172.198 257.133 172.998 254.867 174.598 251.8C176.065 248.733 178.332 245.133 181.398 241C184.332 237 187.132 233.333 189.798 230C192.465 226.8 195.865 222.733 199.998 217.8C204.132 212.867 207.198 209.2 209.198 206.8C206.798 204.667 204.065 203.333 200.998 202.8C198.065 202.267 196.598 201.467 196.598 200.4Z" fill="white"/>
</svg>
