<svg width="70" height="70" viewBox="0 0 70 70" fill="none" xmlns="http://www.w3.org/2000/svg">
<circle cx="15.75" cy="20.4167" r="2.91667" fill="#F0C419"/>
<path d="M68.5755 0H1.42449C0.637935 0 0 0.637935 0 1.42449V68.5755C0 69.3621 0.637935 70 1.42449 70H58.5041C59.2907 70 59.9286 69.3621 59.9286 68.5755C59.9286 67.7889 59.2907 67.151 58.5041 67.151H2.84898V2.84898H67.151V68.5755C67.151 69.3621 67.7889 70 68.5755 70C69.3621 70 70 69.3621 70 68.5755V1.42449C70 0.637935 69.3621 0 68.5755 0Z" fill="black"/>
<path d="M15.6255 14.8197C12.6143 14.8197 10.1649 17.2691 10.1649 20.2803C10.1649 23.2914 12.6143 25.7408 15.6255 25.7408C18.6366 25.7408 21.086 23.2914 21.086 20.2803C21.086 17.2691 18.6366 14.8197 15.6255 14.8197ZM15.6255 22.8918C14.1855 22.8918 13.0139 21.7202 13.0139 20.2803C13.0139 18.8403 14.1855 17.6687 15.6255 17.6687C17.0654 17.6687 18.237 18.8403 18.237 20.2803C18.237 21.7202 17.0656 22.8918 15.6255 22.8918Z" fill="black"/>
<path d="M58.5977 18.8558H25.3595C24.573 18.8558 23.935 19.4937 23.935 20.2803C23.935 21.0668 24.573 21.7048 25.3595 21.7048H58.5977C59.3842 21.7048 60.0222 21.0668 60.0222 20.2803C60.0222 19.4937 59.3845 18.8558 58.5977 18.8558Z" fill="black"/>
<path d="M15.6255 29.5394C14.8389 29.5394 14.201 30.1774 14.201 30.9639C14.201 31.7505 14.8389 32.3884 15.6255 32.3884C17.0654 32.3884 18.237 33.5601 18.237 35C18.237 36.4399 17.0654 37.6116 15.6255 37.6116C14.1855 37.6116 13.0139 36.4399 13.0139 35C13.0139 34.2134 12.376 33.5755 11.5894 33.5755C10.8029 33.5755 10.1649 34.2134 10.1649 35C10.1649 38.0111 12.6143 40.4605 15.6255 40.4605C18.6366 40.4605 21.086 38.0111 21.086 35C21.086 31.9888 18.6366 29.5394 15.6255 29.5394Z" fill="black"/>
<path d="M58.5977 33.5755H25.3595C24.573 33.5755 23.935 34.2134 23.935 35C23.935 35.7866 24.573 36.4245 25.3595 36.4245H58.5977C59.3842 36.4245 60.0222 35.7866 60.0222 35C60.0222 34.2134 59.3845 33.5755 58.5977 33.5755Z" fill="black"/>
<path d="M15.6255 44.2592C12.6143 44.2592 10.1649 46.7086 10.1649 49.7198C10.1649 52.7309 12.6143 55.1803 15.6255 55.1803C18.6366 55.1803 21.086 52.7309 21.086 49.7198C21.086 46.7086 18.6366 44.2592 15.6255 44.2592ZM15.6255 52.3313C14.1855 52.3313 13.0139 51.1597 13.0139 49.7198C13.0139 48.2798 14.1855 47.1082 15.6255 47.1082C17.0654 47.1082 18.237 48.2798 18.237 49.7198C18.237 51.1597 17.0656 52.3313 15.6255 52.3313Z" fill="black"/>
<path d="M58.5977 48.2952H25.3595C24.573 48.2952 23.935 48.9332 23.935 49.7197C23.935 50.5063 24.573 51.1442 25.3595 51.1442H58.5977C59.3842 51.1442 60.0222 50.5063 60.0222 49.7197C60.0222 48.9332 59.3845 48.2952 58.5977 48.2952Z" fill="black"/>
</svg>
